<svg width="40.000000" height="40.000000" viewBox="0 0 40 40" fill="none" xmlns="http://www.w3.org/2000/svg" xmlns:xlink="http://www.w3.org/1999/xlink">
	<desc>
			Created with Pixso.
	</desc>
	<defs>
		<clipPath id="clip1_255">
			<rect id="apple 1" width="40.000000" height="40.000000" fill="white" fill-opacity="0"/>
		</clipPath>
	</defs>
	<rect id="apple 1" width="40.000000" height="40.000000" fill="#FFFFFF" fill-opacity="0"/>
	<g clip-path="url(#clip1_255)">
		<path id="Vector" d="M27.49 0C25.36 0.14 22.87 1.51 21.42 3.29C20.09 4.9 19 7.29 19.43 9.62C21.76 9.69 24.16 8.29 25.56 6.49C26.86 4.8 27.85 2.42 27.49 0Z" fill="#FFFFFF" fill-opacity="1.000000" fill-rule="nonzero"/>
		<path id="Vector" d="M35.92 13.41C33.87 10.85 31 9.36 28.28 9.36C24.69 9.36 23.17 11.08 20.68 11.08C18.11 11.08 16.16 9.36 13.06 9.36C10.01 9.36 6.76 11.22 4.71 14.41C1.81 18.89 2.31 27.33 7 34.51C8.67 37.08 10.91 39.97 13.84 40C16.45 40.02 17.19 38.32 20.72 38.3C24.25 38.29 24.92 40.02 27.52 39.99C30.46 39.97 32.82 36.76 34.5 34.19C35.7 32.35 36.15 31.42 37.08 29.34C30.3 26.76 29.21 17.12 35.92 13.41Z" fill="#FFFFFF" fill-opacity="1.000000" fill-rule="nonzero"/>
	</g>
</svg>
