<svg width="34.166367" height="30.637451" viewBox="0 0 34.1664 30.6375" fill="none" xmlns="http://www.w3.org/2000/svg" xmlns:xlink="http://www.w3.org/1999/xlink">
	<desc>
			Created with Pixso.
	</desc>
	<defs/>
	<path id="Vector" d="M33 4.05C30.96 1.48 28.08 0 25.36 0C21.77 0 20.26 1.71 17.76 1.71C15.19 1.71 13.24 0 10.14 0C7.09 0 3.85 1.86 1.79 5.05C-1.1 9.53 -0.61 17.96 4.08 25.15C5.76 27.72 8 30.61 10.93 30.63C13.53 30.66 14.27 28.96 17.8 28.94C21.33 28.92 22 30.65 24.61 30.63C27.54 30.6 29.9 27.4 31.58 24.83C32.78 22.99 33.23 22.06 34.16 19.98C27.38 17.4 26.29 7.76 33 4.05Z" fill="#FFFFFF" fill-opacity="1.000000" fill-rule="nonzero"/>
</svg>
