<svg width="40.000000" height="40.000000" viewBox="0 0 40 40" fill="none" xmlns="http://www.w3.org/2000/svg" xmlns:xlink="http://www.w3.org/1999/xlink">
	<desc>
			Created with Pixso.
	</desc>
	<defs>
		<clipPath id="clip65_551">
			<rect id="instagram 1" width="40.000000" height="40.000000" fill="white" fill-opacity="0"/>
		</clipPath>
	</defs>
	<rect id="instagram 1" width="40.000000" height="40.000000" fill="#FFFFFF" fill-opacity="0"/>
	<g clip-path="url(#clip65_551)">
		<path id="Vector" d="M39.96 11.76C39.86 9.63 39.52 8.17 39.03 6.9C38.52 5.56 37.74 4.36 36.71 3.36C35.71 2.34 34.5 1.55 33.17 1.05C31.9 0.56 30.45 0.21 28.32 0.12C26.18 0.02 25.5 0 20.07 0C14.64 0 13.96 0.02 11.83 0.11C9.7 0.21 8.24 0.55 6.97 1.04C5.63 1.55 4.43 2.33 3.43 3.36C2.41 4.36 1.62 5.57 1.12 6.89C0.63 8.17 0.28 9.62 0.19 11.75C0.09 13.89 0.07 14.57 0.07 20C0.07 25.43 0.09 26.11 0.18 28.24C0.28 30.37 0.62 31.83 1.11 33.1C1.62 34.44 2.41 35.64 3.43 36.64C4.43 37.66 5.64 38.45 6.97 38.95C8.24 39.44 9.69 39.78 11.82 39.88C13.95 39.97 14.63 40 20.06 40C25.49 40 26.17 39.97 28.31 39.88C30.43 39.78 31.89 39.44 33.16 38.95C35.85 37.91 37.97 35.78 39.01 33.1C39.5 31.82 39.85 30.37 39.94 28.24C40.03 26.11 40.06 25.43 40.06 20C40.06 14.57 40.05 13.89 39.96 11.76ZM36.35 28.09C36.27 30.04 35.94 31.09 35.67 31.8C34.99 33.54 33.61 34.92 31.87 35.6C31.17 35.87 30.1 36.2 28.16 36.28C26.05 36.38 25.41 36.4 20.08 36.4C14.74 36.4 14.1 36.38 12 36.28C10.04 36.2 8.99 35.87 8.29 35.6C7.42 35.28 6.63 34.77 5.99 34.1C5.32 33.45 4.82 32.67 4.5 31.81C4.22 31.1 3.89 30.04 3.81 28.09C3.71 25.98 3.69 25.35 3.69 20.01C3.69 14.68 3.71 14.04 3.81 11.93C3.89 9.98 4.22 8.93 4.5 8.22C4.82 7.36 5.32 6.57 6 5.93C6.64 5.26 7.43 4.75 8.29 4.43C9 4.16 10.06 3.83 12.01 3.75C14.11 3.65 14.75 3.63 20.08 3.63C25.43 3.63 26.06 3.65 28.16 3.75C30.12 3.83 31.17 4.16 31.88 4.43C32.74 4.75 33.53 5.26 34.17 5.93C34.84 6.57 35.35 7.36 35.67 8.22C35.94 8.93 36.27 9.99 36.35 11.93C36.45 14.04 36.47 14.68 36.47 20.01C36.47 25.35 36.45 25.98 36.35 28.09Z" fill="#FFFFFF" fill-opacity="1.000000" fill-rule="nonzero"/>
		<path id="Vector" d="M20.07 9.72C14.4 9.72 9.79 14.33 9.79 20C9.79 25.67 14.4 30.27 20.07 30.27C25.74 30.27 30.34 25.67 30.34 20C30.34 14.33 25.74 9.72 20.07 9.72ZM20.07 26.66C16.39 26.66 13.4 23.68 13.4 20C13.4 16.32 16.39 13.33 20.07 13.33C23.75 13.33 26.73 16.32 26.73 20C26.73 23.68 23.75 26.66 20.07 26.66Z" fill="#FFFFFF" fill-opacity="1.000000" fill-rule="nonzero"/>
		<path id="Vector" d="M33.15 9.32C33.15 10.64 32.08 11.72 30.75 11.72C29.43 11.72 28.35 10.64 28.35 9.32C28.35 7.99 29.43 6.92 30.75 6.92C32.08 6.92 33.15 7.99 33.15 9.32Z" fill="#FFFFFF" fill-opacity="1.000000" fill-rule="nonzero"/>
	</g>
</svg>
