<svg width="40.000000" height="40.000000" viewBox="0 0 40 40" fill="none" xmlns="http://www.w3.org/2000/svg" xmlns:xlink="http://www.w3.org/1999/xlink">
	<desc>
			Created with Pixso.
	</desc>
	<defs>
		<clipPath id="clip65_540">
			<rect id="linkedin 1" width="40.000000" height="40.000000" fill="white" fill-opacity="0"/>
		</clipPath>
	</defs>
	<rect id="linkedin 1" width="40.000000" height="40.000000" fill="#FFFFFF" fill-opacity="0"/>
	<g clip-path="url(#clip65_540)">
		<path id="Vector" d="M35.99 35.99L35.99 35.99L35.99 35.99L35.99 24.26C35.99 18.52 34.76 14.09 28.05 14.09C24.82 14.09 22.65 15.86 21.77 17.54L21.68 17.54L21.68 14.63L15.31 14.63L15.31 35.99L21.94 35.99L21.94 25.41C21.94 22.63 22.47 19.94 25.92 19.94C29.32 19.94 29.37 23.11 29.37 25.59L29.37 35.99L35.99 35.99Z" fill="#FFFFFF" fill-opacity="1.000000" fill-rule="nonzero"/>
		<path id="Vector" d="M4.52 14.63L11.16 14.63L11.16 36L4.52 36L4.52 14.63Z" fill="#FFFFFF" fill-opacity="1.000000" fill-rule="nonzero"/>
		<path id="Vector" d="M7.84 4C5.72 4 4 5.72 4 7.84C4 9.96 5.72 11.72 7.84 11.72C9.96 11.72 11.68 9.96 11.68 7.84C11.68 5.72 9.96 4 7.84 4Z" fill="#FFFFFF" fill-opacity="1.000000" fill-rule="nonzero"/>
	</g>
</svg>
