<svg width="40.000000" height="40.000000" viewBox="0 0 40 40" fill="none" xmlns="http://www.w3.org/2000/svg" xmlns:xlink="http://www.w3.org/1999/xlink">
	<desc>
			Created with Pixso.
	</desc>
	<defs>
		<clipPath id="clip65_522">
			<rect id="facebook 1" width="40.000000" height="40.000000" fill="white" fill-opacity="0"/>
		</clipPath>
	</defs>
	<rect id="facebook 1" width="40.000000" height="40.000000" fill="#FFFFFF" fill-opacity="0"/>
	<g clip-path="url(#clip65_522)">
		<path id="Vector" d="M40 20C40 29.98 32.68 38.25 23.12 39.75L23.12 25.78L27.78 25.78L28.67 20L23.12 20L23.12 16.24C23.12 14.66 23.9 13.12 26.38 13.12L28.9 13.12L28.9 8.2C28.9 8.2 26.61 7.81 24.42 7.81C19.86 7.81 16.87 10.58 16.87 15.59L16.87 20L11.79 20L11.79 25.78L16.87 25.78L16.87 39.75C7.31 38.25 0 29.98 0 20C0 8.95 8.95 0 20 0C31.04 0 40 8.95 40 20Z" fill="#FFFFFF" fill-opacity="1.000000" fill-rule="nonzero"/>
		<path id="Vector" d="M27.78 25.78L28.67 20L23.12 20L23.12 16.24C23.12 14.66 23.89 13.12 26.38 13.12L28.9 13.12L28.9 8.2C28.9 8.2 26.61 7.81 24.42 7.81C19.86 7.81 16.87 10.58 16.87 15.59L16.87 20L11.79 20L11.79 25.78L16.87 25.78L16.87 39.75C17.89 39.91 18.93 40 20 40C21.06 40 22.1 39.91 23.12 39.75L23.12 25.78L27.78 25.78Z" fill="#1877F2" fill-opacity="1.000000" fill-rule="nonzero"/>
	</g>
</svg>
