<svg width="18.900024" height="21.741211" viewBox="0 0 18.9 21.7412" fill="none" xmlns="http://www.w3.org/2000/svg" xmlns:xlink="http://www.w3.org/1999/xlink">
	<desc>
			Created with Pixso.
	</desc>
	<defs/>
	<path id="Vector" d="M7.08 21.66C8.58 21.44 9.97 20.75 11.06 19.67C12.4 18.35 13.14 16.59 13.15 14.71L13.13 6.37C13.77 6.87 14.47 7.28 15.22 7.59C16.39 8.09 17.62 8.34 18.9 8.34L18.9 5.63C17.48 5.36 16.26 4.57 15.42 3.47C14.31 2.63 13.51 1.41 13.24 0L10.55 0L10.55 10.18L10.55 15.76C10.55 17.25 9.57 18.52 8.21 18.96C7.81 19.09 7.39 19.15 6.94 19.12C5.82 19.06 4.84 18.46 4.26 17.57C3.28 16.99 2.62 15.94 2.6 14.73C2.57 12.84 4.11 11.31 6.01 11.31C6.38 11.31 6.75 11.37 7.08 11.47L7.08 8.7C5.19 8.71 3.41 9.45 2.08 10.78C0.75 12.09 -0.01 13.89 0 15.76C0 17.42 0.57 18.99 1.64 20.25C2.88 21.22 4.41 21.74 6.01 21.74C6.37 21.74 6.73 21.71 7.08 21.66Z" fill="#000000" fill-opacity="1.000000" fill-rule="nonzero"/>
</svg>
