<svg width="40.000000" height="40.000000" viewBox="0 0 40 40" fill="none" xmlns="http://www.w3.org/2000/svg" xmlns:xlink="http://www.w3.org/1999/xlink">
	<desc>
			Created with Pixso.
	</desc>
	<defs>
		<clipPath id="clip65_520">
			<rect id="twitter 1" width="40.000000" height="40.000000" fill="white" fill-opacity="0"/>
		</clipPath>
	</defs>
	<rect id="twitter 1" width="40.000000" height="40.000000" fill="#FFFFFF" fill-opacity="0"/>
	<g clip-path="url(#clip65_520)">
		<path id="Vector" d="M40 7.59C38.51 8.25 36.92 8.68 35.27 8.89C36.97 7.87 38.27 6.28 38.88 4.36C37.29 5.3 35.54 5.97 33.68 6.34C32.17 4.74 30.03 3.75 27.69 3.75C23.15 3.75 19.49 7.43 19.49 11.95C19.49 12.6 19.55 13.22 19.68 13.82C12.87 13.49 6.83 10.22 2.78 5.24C2.07 6.47 1.66 7.87 1.66 9.38C1.66 12.23 3.12 14.74 5.3 16.2C3.98 16.17 2.69 15.79 1.6 15.19C1.6 15.22 1.6 15.25 1.6 15.28C1.6 19.27 4.44 22.58 8.17 23.34C7.5 23.52 6.77 23.61 6.02 23.61C5.49 23.61 4.96 23.58 4.46 23.47C5.53 26.72 8.54 29.1 12.13 29.18C9.34 31.36 5.79 32.68 1.96 32.68C1.28 32.68 0.64 32.65 0 32.57C3.63 34.91 7.93 36.25 12.58 36.25C27.67 36.25 35.91 23.75 35.91 12.91C35.91 12.55 35.9 12.2 35.89 11.85C37.51 10.7 38.88 9.25 40 7.59Z" fill="#FFFFFF" fill-opacity="1.000000" fill-rule="nonzero"/>
	</g>
</svg>
