<svg width="57.129654" height="40.000000" viewBox="0 0 57.1297 40" fill="none" xmlns="http://www.w3.org/2000/svg" xmlns:xlink="http://www.w3.org/1999/xlink">
	<desc>
			Created with Pixso.
	</desc>
	<defs/>
	<path id="Vector" d="M55.95 6.25C55.29 3.81 53.36 1.88 50.91 1.22C46.44 0 28.56 0 28.56 0C28.56 0 10.68 0 6.21 1.17C3.81 1.83 1.83 3.81 1.17 6.25C0 10.72 0 20 0 20C0 20 0 29.31 1.17 33.74C1.83 36.18 3.76 38.11 6.21 38.77C10.72 40 28.56 40 28.56 40C28.56 40 46.44 40 50.91 38.82C53.36 38.16 55.29 36.23 55.95 33.78C57.12 29.31 57.12 20.04 57.12 20.04C57.12 20.04 57.17 10.72 55.95 6.25Z" fill="#FFFFFF" fill-opacity="1.000000" fill-rule="nonzero"/>
	<path id="Vector" d="M22.87 28.56L37.74 20L22.87 11.43L22.87 28.56Z" fill="#FF0000" fill-opacity="1.000000" fill-rule="nonzero"/>
</svg>
